<?xml version="1.0" standalone="no"?>
<!DOCTYPE svg PUBLIC "-//W3C//DTD SVG 20010904//EN"
 "http://www.w3.org/TR/2001/REC-SVG-20010904/DTD/svg10.dtd">
<svg version="1.0" xmlns="http://www.w3.org/2000/svg"
 width="171.000000pt" height="171.000000pt" viewBox="0 0 171.000000 171.000000"
 preserveAspectRatio="xMidYMid meet">

<g transform="translate(0.000000,171.000000) scale(0.100000,-0.100000)"
fill="#000000" stroke="none">
<path d="M740 1560 c-62 -82 -119 -150 -126 -150 -8 0 -92 11 -185 26 -94 14
-173 23 -176 21 -4 -4 28 -259 43 -343 6 -31 2 -35 -98 -110 -56 -43 -124 -95
-150 -115 l-47 -37 150 -112 c86 -65 149 -120 149 -129 0 -9 -11 -92 -25 -186
-13 -93 -22 -171 -21 -173 2 -1 79 9 172 23 93 14 176 25 185 25 10 0 52 -46
95 -103 43 -56 95 -123 115 -149 l37 -48 109 150 c126 174 90 160 328 126 88
-13 161 -22 163 -21 1 1 -10 85 -26 186 l-27 184 147 113 c82 62 148 117 148
121 0 16 -291 222 -303 214 -36 -21 -287 -215 -287 -221 1 -4 64 -54 141 -111
77 -57 138 -106 135 -108 -2 -2 -81 8 -176 22 -95 14 -174 24 -177 22 -2 -2 8
-84 21 -183 14 -98 24 -179 23 -180 -1 -1 -51 63 -111 142 -60 79 -112 144
-115 144 -4 0 -54 -63 -111 -141 -58 -77 -106 -134 -108 -127 -1 7 9 87 22
178 14 90 24 165 22 167 -1 2 -81 -8 -177 -21 -96 -14 -175 -23 -177 -22 -1 2
61 52 138 111 77 59 139 111 138 116 -2 5 -68 56 -147 114 -103 76 -137 105
-120 105 13 0 96 -11 184 -24 88 -13 161 -23 162 -22 1 1 -9 78 -23 170 -14
92 -24 172 -22 178 2 5 52 -54 111 -131 59 -78 111 -141 115 -141 4 0 54 65
112 145 57 79 105 143 106 142 2 -1 -8 -83 -22 -181 -14 -98 -23 -181 -20
-184 5 -5 357 45 364 52 5 6 52 316 52 347 l0 25 -162 -22 c-90 -13 -174 -23
-188 -23 -21 0 -45 26 -136 150 l-112 149 -112 -150z"/>
</g>
</svg>
