<?xml version="1.0" encoding="UTF-8" standalone="no"?>
<svg
   xmlns:dc="http://purl.org/dc/elements/1.1/"
   xmlns:cc="http://creativecommons.org/ns#"
   xmlns:rdf="http://www.w3.org/1999/02/22-rdf-syntax-ns#"
   xmlns:svg="http://www.w3.org/2000/svg"
   xmlns="http://www.w3.org/2000/svg"
   xmlns:sodipodi="http://sodipodi.sourceforge.net/DTD/sodipodi-0.dtd"
   xmlns:inkscape="http://www.inkscape.org/namespaces/inkscape"
   width="24"
   height="24"
   viewBox="0 0 24 24"
   version="1.1"
   id="svg4"
   sodipodi:docname="chess copy.svg"
   inkscape:version="0.92.5 (2060ec1f9f, 2020-04-08)">
  <metadata
     id="metadata10">
    <rdf:RDF>
      <cc:Work
         rdf:about="">
        <dc:format>image/svg+xml</dc:format>
        <dc:type
           rdf:resource="http://purl.org/dc/dcmitype/StillImage" />
      </cc:Work>
    </rdf:RDF>
  </metadata>
  <defs
     id="defs8" />
  <sodipodi:namedview
     pagecolor="#ffffff"
     bordercolor="#666666"
     borderopacity="1"
     objecttolerance="10"
     gridtolerance="10"
     guidetolerance="10"
     inkscape:pageopacity="0"
     inkscape:pageshadow="2"
     inkscape:window-width="1920"
     inkscape:window-height="1000"
     id="namedview6"
     showgrid="false"
     inkscape:zoom="13.906433"
     inkscape:cx="26.537597"
     inkscape:cy="3.3454395"
     inkscape:window-x="0"
     inkscape:window-y="28"
     inkscape:window-maximized="1"
     inkscape:current-layer="svg4" />
  <path
     d="M 10.352231,20.748921 C 9.5676049,19.711189 8.8462559,18.850632 8.7576691,18.850632 c -0.101242,0 -1.1642831,0.139208 -2.3412214,0.329037 C 5.226854,19.356843 4.2270889,19.47074 4.1891235,19.44543 4.1385026,19.394806 4.5434703,16.167719 4.733299,15.104678 4.8092308,14.712365 4.7586081,14.661744 3.4930845,13.7126 2.7843904,13.168424 1.9238333,12.510352 1.5947968,12.257247 L 1,11.789002 2.8982876,10.371614 C 3.9866392,9.549023 4.78392,8.8529842 4.78392,8.7390867 4.78392,8.6251896 4.6447122,7.5748037 4.467539,6.3852102 4.3030205,5.2082716 4.1891235,4.2211621 4.2017787,4.1958516 c 0.025309,-0.012655 0.9997646,0.1138972 2.1767032,0.2910708 1.1769383,0.1771736 2.2273243,0.3163814 2.3412214,0.3163814 0.1265526,0 0.658073,-0.5821417 1.2022487,-1.303491 0.544176,-0.7086941 1.202249,-1.5565959 1.455354,-1.8856324 l 0.468244,-0.6074521 1.379423,1.8982876 c 1.594562,2.2020138 1.138973,2.0248402 4.150922,1.5945617 1.113662,-0.164518 2.037496,-0.2784155 2.062807,-0.2657602 0.01266,0.012655 -0.126553,1.0756965 -0.329038,2.3538767 l -0.341691,2.3285662 1.860322,1.4300427 c 1.03773,0.784626 1.872977,1.480665 1.872977,1.531285 0,0.202485 -3.682678,2.809467 -3.834541,2.708225 -0.455589,-0.26576 -3.632057,-2.72088 -3.632057,-2.796811 0.01266,-0.05062 0.809936,-0.683384 1.78439,-1.404733 0.974455,-0.7213488 1.746425,-1.3414561 1.708459,-1.3667667 -0.02531,-0.025309 -1.025076,0.1012422 -2.227324,0.2784155 -1.202249,0.1771736 -2.202014,0.3037262 -2.23998,0.2784156 -0.02531,-0.025309 0.101242,-1.0630412 0.265761,-2.3159108 0.177173,-1.2402147 0.303726,-2.2652901 0.29107,-2.2779453 -0.01266,-0.012656 -0.645417,0.7972809 -1.404733,1.7970455 -0.759315,0.9997651 -1.417387,1.8223562 -1.455353,1.8223562 -0.05062,0 -0.683384,-0.7972808 -1.404733,-1.7843904 C 9.6182258,5.8410343 9.010774,5.1196851 8.9854636,5.2082716 8.9728075,5.2968584 9.099361,6.3092785 9.2638795,7.4609065 9.4410531,8.599879 9.5676049,9.549023 9.5422949,9.5743334 9.529639,9.5996456 8.5172193,9.4730914 7.3023153,9.3085733 6.0874109,9.1313997 5.0876462,9.0175023 5.0623356,9.0301577 5.0496796,9.0554667 5.834306,9.6882308 6.8087603,10.43489 c 0.9744545,0.74666 1.75908,1.404733 1.7464249,1.468009 -0.025313,0.06327 -0.8605572,0.708695 -1.8603219,1.442699 C 5.3913721,14.307397 4.9610936,14.6744 5.176233,14.6744 c 0.1645181,0 1.214904,-0.139209 2.3285662,-0.303726 1.1136621,-0.164519 2.0374957,-0.291072 2.0501507,-0.278416 0.012651,0.01265 -0.1138968,0.98711 -0.2910704,2.151392 -0.1771735,1.164283 -0.3037265,2.176704 -0.2784159,2.252635 0.025309,0.06327 0.6580731,-0.683383 1.4047334,-1.657837 0.746659,-0.98711 1.404733,-1.784391 1.455353,-1.784391 0.05062,0 0.683384,0.822591 1.417388,1.835012 0.72135,0.999764 1.328802,1.8097 1.341457,1.797045 0.02531,-0.01266 -0.101242,-1.050386 -0.278415,-2.2906 -0.177174,-1.240215 -0.291072,-2.290601 -0.253106,-2.328567 0.06327,-0.06328 4.517926,0.569487 4.606512,0.658074 0.06327,0.07594 0.658073,3.999058 0.658073,4.391371 v 0.316382 l -2.05015,-0.278416 c -1.138974,-0.164518 -2.202014,-0.29107 -2.379188,-0.29107 -0.26576,0 -0.569486,0.329036 -1.721114,1.898288 l -1.417388,1.885632 z"
     id="path2"
     inkscape:connector-curvature="0"
     style="fill:currentColor;stroke-width:0.01265525" />
</svg>
